<svg width="16" height="28" viewBox="0 0 16 28" fill="none" xmlns="http://www.w3.org/2000/svg">
<path d="M12.721 26.6166L0.800731 14.7317C0.659245 14.5902 0.558789 14.4369 0.499365 14.2719C0.43994 14.1068 0.4107 13.93 0.411643 13.7413C0.411643 13.5527 0.441355 13.3758 0.50078 13.2107C0.560204 13.0457 0.660188 12.8924 0.800731 12.7509L12.721 0.830652C13.0511 0.500517 13.4638 0.335449 13.959 0.335449C14.4542 0.335449 14.8786 0.512307 15.2324 0.866024C15.5861 1.21974 15.7629 1.63241 15.7629 2.10403C15.7629 2.57565 15.5861 2.98832 15.2324 3.34204L4.8331 13.7413L15.2324 24.1406C15.5625 24.4707 15.7276 24.8777 15.7276 25.3616C15.7276 25.8455 15.5507 26.2638 15.197 26.6166C14.8433 26.9703 14.4306 27.1472 13.959 27.1472C13.4874 27.1472 13.0747 26.9703 12.721 26.6166Z" fill="white"/>
</svg>
