<svg width="16" height="28" viewBox="0 0 16 28" fill="none" xmlns="http://www.w3.org/2000/svg">
<path d="M3.45359 0.865835L15.3738 12.7507C15.5153 12.8922 15.6158 13.0455 15.6752 13.2105C15.7346 13.3756 15.7639 13.5525 15.7629 13.7411C15.7629 13.9298 15.7332 14.1066 15.6738 14.2717C15.6144 14.4368 15.5144 14.59 15.3738 14.7315L3.45358 26.6518C3.12345 26.9819 2.71078 27.147 2.21558 27.147C1.72037 27.147 1.29591 26.9701 0.942196 26.6164C0.58848 26.2627 0.411622 25.85 0.411622 25.3784C0.411622 24.9068 0.58848 24.4941 0.942197 24.1404L11.3415 13.7411L0.942198 3.34185C0.612063 3.01171 0.446995 2.60471 0.446995 2.12082C0.446995 1.63694 0.623853 1.21861 0.97757 0.865835C1.33129 0.512118 1.74396 0.33526 2.21558 0.33526C2.6872 0.33526 3.09987 0.512119 3.45359 0.865835Z" fill="white"/>
</svg>
