<svg width="60" height="60" viewBox="0 0 60 60" fill="none" xmlns="http://www.w3.org/2000/svg">
<circle cx="30" cy="30" r="30" fill="#002859"/>
<path d="M14.75 45.0322C13.7188 45.0322 12.8363 44.6654 12.1025 43.9316C11.3675 43.1966 11 42.3135 11 41.2822V18.7822C11 17.751 11.3675 16.8685 12.1025 16.1347C12.8363 15.3997 13.7188 15.0322 14.75 15.0322H44.75C45.7812 15.0322 46.6644 15.3997 47.3994 16.1347C48.1331 16.8685 48.5 17.751 48.5 18.7822V41.2822C48.5 42.3135 48.1331 43.1966 47.3994 43.9316C46.6644 44.6654 45.7812 45.0322 44.75 45.0322H14.75ZM29.75 31.9072L14.75 22.5322V41.2822H44.75V22.5322L29.75 31.9072ZM29.75 28.1572L44.75 18.7822H14.75L29.75 28.1572ZM14.75 22.5322V18.7822V41.2822V22.5322Z" fill="white"/>
</svg>
