<svg width="60" height="60" viewBox="0 0 60 60" fill="none" xmlns="http://www.w3.org/2000/svg">
<circle cx="30" cy="30" r="30" fill="#002859"/>
<path d="M30.0381 21.1982C28.9256 21.1982 27.838 21.5281 26.913 22.1462C25.988 22.7643 25.267 23.6428 24.8413 24.6706C24.4155 25.6985 24.3041 26.8295 24.5212 27.9206C24.7382 29.0118 25.2739 30.014 26.0606 30.8007C26.8473 31.5874 27.8496 32.1231 28.9407 32.3402C30.0318 32.5572 31.1628 32.4458 32.1907 32.0201C33.2185 31.5943 34.097 30.8734 34.7151 29.9483C35.3332 29.0233 35.6631 27.9358 35.6631 26.8232C35.6614 25.3319 35.0682 23.9022 34.0137 22.8476C32.9592 21.7931 31.5294 21.1999 30.0381 21.1982ZM30.0381 29.6357C29.4818 29.6357 28.9381 29.4708 28.4755 29.1617C28.013 28.8527 27.6525 28.4135 27.4397 27.8995C27.2268 27.3856 27.1711 26.8201 27.2796 26.2745C27.3881 25.729 27.656 25.2278 28.0494 24.8345C28.4427 24.4412 28.9438 24.1733 29.4894 24.0648C30.035 23.9563 30.6005 24.012 31.1144 24.2248C31.6283 24.4377 32.0676 24.7982 32.3766 25.2607C32.6856 25.7232 32.8506 26.267 32.8506 26.8232C32.8497 27.5689 32.5531 28.2838 32.0259 28.811C31.4986 29.3383 30.7837 29.6349 30.0381 29.6357Z" fill="white"/>
<path d="M40.8471 16.0056C38.1746 13.3338 34.6071 11.7466 30.8332 11.5504C27.0592 11.3542 23.3464 12.5629 20.4113 14.9432C17.4761 17.3235 15.5267 20.7067 14.9393 24.4398C14.3518 28.1729 15.1681 31.9913 17.2304 35.158L27.857 51.4716C28.0935 51.8346 28.4168 52.1329 28.7977 52.3393C29.1786 52.5458 29.605 52.6539 30.0382 52.6539C30.4714 52.6539 30.8978 52.5458 31.2787 52.3393C31.6596 52.1329 31.9829 51.8346 32.2194 51.4716L42.8464 35.158C44.76 32.2204 45.6056 28.7143 45.2416 25.2274C44.8777 21.7405 43.3261 18.4847 40.8471 16.0056ZM40.4898 33.6228L30.0382 49.6672L19.5866 33.6228C16.3873 28.7115 17.0735 22.1391 21.2181 17.9943C22.3763 16.836 23.7514 15.9172 25.2648 15.2903C26.7782 14.6635 28.4002 14.3408 30.0382 14.3408C31.6763 14.3408 33.2983 14.6635 34.8117 15.2903C36.3251 15.9172 37.7001 16.836 38.8584 17.9943C43.003 22.1391 43.6891 28.7115 40.4898 33.6228Z" fill="white"/>
</svg>
