<svg width="60" height="60" viewBox="0 0 60 60" fill="none" xmlns="http://www.w3.org/2000/svg">
<circle cx="30" cy="30" r="30" fill="#002859"/>
<path d="M11.8936 16.6553L17.0938 11.46C17.7285 10.8252 18.5781 10.4688 19.4766 10.4688C20.375 10.4688 21.2246 10.8203 21.8594 11.46L27.46 17.0508C28.0947 17.6855 28.4512 18.54 28.4512 19.4385C28.4512 20.3418 28.0996 21.1865 27.46 21.8262L23.085 26.2061C24.0816 28.5282 25.5136 30.6382 27.3037 32.4219C29.0957 34.2236 31.1904 35.6445 33.5146 36.6504L37.8896 32.2705C38.5244 31.6357 39.374 31.2793 40.2725 31.2793C40.7156 31.2777 41.1546 31.3645 41.5638 31.5347C41.973 31.7049 42.344 31.9551 42.6553 32.2705L48.2607 37.8613C48.8955 38.4961 49.252 39.3506 49.252 40.249C49.252 41.1523 48.9004 41.9971 48.2607 42.6367L43.0654 47.832C41.9814 48.916 40.4873 49.5361 38.9541 49.5361C38.6367 49.5361 38.3291 49.5117 38.0166 49.458C31.5518 48.3936 25.1357 44.9512 19.9551 39.7754C14.7793 34.5898 11.3418 28.1738 10.2676 21.7041C9.95996 19.8682 10.5752 17.9785 11.8936 16.6553ZM13.7295 21.123C14.6816 26.8799 17.7773 32.6221 22.4404 37.2852C27.1035 41.9482 32.8408 45.0439 38.5977 45.9961C39.3203 46.1182 40.0625 45.874 40.5898 45.3516L45.6924 40.249L40.2822 34.834L34.4326 40.6934L34.3887 40.7373L33.334 40.3467C30.1361 39.1709 27.2321 37.3139 24.8233 34.9042C22.4145 32.4945 20.5584 29.5899 19.3838 26.3916L18.9932 25.3369L24.8916 19.4434L19.4814 14.0283L14.3789 19.1309C13.8516 19.6582 13.6074 20.4004 13.7295 21.123Z" fill="white"/>
</svg>
