<svg width="787" height="157" viewBox="0 0 787 157" fill="none" xmlns="http://www.w3.org/2000/svg">
<path d="M348.591 62V15.4545H378.409V22.5227H357.023V35.1591H376.364V42.2273H357.023V62H348.591ZM385.227 62V27.0909H393.205V32.9091H393.568C394.205 30.8939 395.295 29.3409 396.841 28.25C398.402 27.1439 400.182 26.5909 402.182 26.5909C402.636 26.5909 403.144 26.6136 403.705 26.6591C404.28 26.6894 404.758 26.7424 405.136 26.8182V34.3864C404.788 34.2652 404.235 34.1591 403.477 34.0682C402.735 33.9621 402.015 33.9091 401.318 33.9091C399.818 33.9091 398.47 34.2348 397.273 34.8864C396.091 35.5227 395.159 36.4091 394.477 37.5455C393.795 38.6818 393.455 39.9924 393.455 41.4773V62H385.227ZM424.619 62.6818C421.119 62.6818 418.097 61.9545 415.551 60.5C413.021 59.0303 411.074 56.9545 409.71 54.2727C408.347 51.5758 407.665 48.4015 407.665 44.75C407.665 41.1591 408.347 38.0076 409.71 35.2955C411.089 32.5682 413.013 30.447 415.483 28.9318C417.953 27.4015 420.854 26.6364 424.188 26.6364C426.339 26.6364 428.369 26.9848 430.278 27.6818C432.203 28.3636 433.9 29.4242 435.369 30.8636C436.854 32.303 438.021 34.1364 438.869 36.3636C439.718 38.5758 440.142 41.2121 440.142 44.2727V46.7955H411.528V41.25H432.256C432.241 39.6742 431.9 38.2727 431.233 37.0455C430.566 35.803 429.634 34.8258 428.438 34.1136C427.256 33.4015 425.877 33.0455 424.301 33.0455C422.619 33.0455 421.142 33.4545 419.869 34.2727C418.597 35.0758 417.604 36.1364 416.892 37.4545C416.195 38.7576 415.839 40.1894 415.824 41.75V46.5909C415.824 48.6212 416.195 50.3636 416.938 51.8182C417.68 53.2576 418.718 54.3636 420.051 55.1364C421.384 55.8939 422.945 56.2727 424.733 56.2727C425.93 56.2727 427.013 56.1061 427.983 55.7727C428.953 55.4242 429.794 54.9167 430.506 54.25C431.218 53.5833 431.756 52.7576 432.119 51.7727L439.801 52.6364C439.316 54.6667 438.392 56.4394 437.028 57.9545C435.68 59.4545 433.953 60.6212 431.847 61.4545C429.741 62.2727 427.331 62.6818 424.619 62.6818ZM420.801 22.5L425.892 12.1136H433.938L426.96 22.5H420.801ZM460.057 62.6136C457.314 62.6136 454.86 61.9091 452.693 60.5C450.527 59.0909 448.814 57.0455 447.557 54.3636C446.299 51.6818 445.67 48.4242 445.67 44.5909C445.67 40.7121 446.307 37.4394 447.58 34.7727C448.867 32.0909 450.602 30.0682 452.784 28.7045C454.966 27.3258 457.398 26.6364 460.08 26.6364C462.125 26.6364 463.807 26.9848 465.125 27.6818C466.443 28.3636 467.489 29.1894 468.261 30.1591C469.034 31.1136 469.633 32.0152 470.057 32.8636H470.398V15.4545H478.648V62H470.557V56.5H470.057C469.633 57.3485 469.019 58.25 468.216 59.2045C467.413 60.1439 466.352 60.947 465.034 61.6136C463.716 62.2803 462.057 62.6136 460.057 62.6136ZM462.352 55.8636C464.095 55.8636 465.58 55.3939 466.807 54.4545C468.034 53.5 468.966 52.1742 469.602 50.4773C470.239 48.7803 470.557 46.803 470.557 44.5455C470.557 42.2879 470.239 40.3258 469.602 38.6591C468.981 36.9924 468.057 35.697 466.83 34.7727C465.617 33.8485 464.125 33.3864 462.352 33.3864C460.519 33.3864 458.989 33.8636 457.761 34.8182C456.534 35.7727 455.61 37.0909 454.989 38.7727C454.367 40.4545 454.057 42.3788 454.057 44.5455C454.057 46.7273 454.367 48.6742 454.989 50.3864C455.625 52.0833 456.557 53.4242 457.784 54.4091C459.027 55.3788 460.549 55.8636 462.352 55.8636ZM502.869 62.6818C499.369 62.6818 496.347 61.9545 493.801 60.5C491.271 59.0303 489.324 56.9545 487.96 54.2727C486.597 51.5758 485.915 48.4015 485.915 44.75C485.915 41.1591 486.597 38.0076 487.96 35.2955C489.339 32.5682 491.263 30.447 493.733 28.9318C496.203 27.4015 499.104 26.6364 502.438 26.6364C504.589 26.6364 506.619 26.9848 508.528 27.6818C510.453 28.3636 512.15 29.4242 513.619 30.8636C515.104 32.303 516.271 34.1364 517.119 36.3636C517.968 38.5758 518.392 41.2121 518.392 44.2727V46.7955H489.778V41.25H510.506C510.491 39.6742 510.15 38.2727 509.483 37.0455C508.816 35.803 507.884 34.8258 506.688 34.1136C505.506 33.4015 504.127 33.0455 502.551 33.0455C500.869 33.0455 499.392 33.4545 498.119 34.2727C496.847 35.0758 495.854 36.1364 495.142 37.4545C494.445 38.7576 494.089 40.1894 494.074 41.75V46.5909C494.074 48.6212 494.445 50.3636 495.188 51.8182C495.93 53.2576 496.968 54.3636 498.301 55.1364C499.634 55.8939 501.195 56.2727 502.983 56.2727C504.18 56.2727 505.263 56.1061 506.233 55.7727C507.203 55.4242 508.044 54.9167 508.756 54.25C509.468 53.5833 510.006 52.7576 510.369 51.7727L518.051 52.6364C517.566 54.6667 516.642 56.4394 515.278 57.9545C513.93 59.4545 512.203 60.6212 510.097 61.4545C507.991 62.2727 505.581 62.6818 502.869 62.6818ZM499.051 22.5L504.142 12.1136H512.188L505.21 22.5H499.051ZM525.352 62V27.0909H533.33V32.9091H533.693C534.33 30.8939 535.42 29.3409 536.966 28.25C538.527 27.1439 540.307 26.5909 542.307 26.5909C542.761 26.5909 543.269 26.6136 543.83 26.6591C544.405 26.6894 544.883 26.7424 545.261 26.8182V34.3864C544.913 34.2652 544.36 34.1591 543.602 34.0682C542.86 33.9621 542.14 33.9091 541.443 33.9091C539.943 33.9091 538.595 34.2348 537.398 34.8864C536.216 35.5227 535.284 36.4091 534.602 37.5455C533.92 38.6818 533.58 39.9924 533.58 41.4773V62H525.352ZM550.727 62V27.0909H558.955V62H550.727ZM554.864 22.1364C553.561 22.1364 552.439 21.7045 551.5 20.8409C550.561 19.9621 550.091 18.9091 550.091 17.6818C550.091 16.4394 550.561 15.3864 551.5 14.5227C552.439 13.6439 553.561 13.2045 554.864 13.2045C556.182 13.2045 557.303 13.6439 558.227 14.5227C559.167 15.3864 559.636 16.4394 559.636 17.6818C559.636 18.9091 559.167 19.9621 558.227 20.8409C557.303 21.7045 556.182 22.1364 554.864 22.1364ZM582.642 62.6818C579.157 62.6818 576.165 61.9167 573.665 60.3864C571.18 58.8561 569.263 56.7424 567.915 54.0455C566.581 51.3333 565.915 48.2121 565.915 44.6818C565.915 41.1364 566.597 38.0076 567.96 35.2955C569.324 32.5682 571.248 30.447 573.733 28.9318C576.233 27.4015 579.188 26.6364 582.597 26.6364C585.43 26.6364 587.938 27.1591 590.119 28.2045C592.316 29.2348 594.066 30.697 595.369 32.5909C596.672 34.4697 597.415 36.6667 597.597 39.1818H589.733C589.415 37.5 588.657 36.0985 587.46 34.9773C586.278 33.8409 584.695 33.2727 582.71 33.2727C581.028 33.2727 579.551 33.7273 578.278 34.6364C577.006 35.5303 576.013 36.8182 575.301 38.5C574.604 40.1818 574.256 42.197 574.256 44.5455C574.256 46.9242 574.604 48.9697 575.301 50.6818C575.998 52.3788 576.975 53.6894 578.233 54.6136C579.506 55.5227 580.998 55.9773 582.71 55.9773C583.922 55.9773 585.006 55.75 585.96 55.2955C586.93 54.8258 587.741 54.1515 588.392 53.2727C589.044 52.3939 589.491 51.3258 589.733 50.0682H597.597C597.4 52.5379 596.672 54.7273 595.415 56.6364C594.157 58.5303 592.445 60.0152 590.278 61.0909C588.112 62.1515 585.566 62.6818 582.642 62.6818ZM620.591 62V15.4545H638.409C641.773 15.4545 644.568 15.9848 646.795 17.0455C649.038 18.0909 650.712 19.5227 651.818 21.3409C652.939 23.1591 653.5 25.2197 653.5 27.5227C653.5 29.4167 653.136 31.0379 652.409 32.3864C651.682 33.7197 650.705 34.803 649.477 35.6364C648.25 36.4697 646.879 37.0682 645.364 37.4318V37.8864C647.015 37.9773 648.598 38.4848 650.114 39.4091C651.644 40.3182 652.894 41.6061 653.864 43.2727C654.833 44.9394 655.318 46.9545 655.318 49.3182C655.318 51.7273 654.735 53.8939 653.568 55.8182C652.402 57.7273 650.644 59.2348 648.295 60.3409C645.947 61.447 642.992 62 639.432 62H620.591ZM629.023 54.9545H638.091C641.152 54.9545 643.356 54.3712 644.705 53.2045C646.068 52.0227 646.75 50.5076 646.75 48.6591C646.75 47.2803 646.409 46.0379 645.727 44.9318C645.045 43.8106 644.076 42.9318 642.818 42.2955C641.561 41.6439 640.061 41.3182 638.318 41.3182H629.023V54.9545ZM629.023 35.25H637.364C638.818 35.25 640.129 34.9848 641.295 34.4545C642.462 33.9091 643.379 33.1439 644.045 32.1591C644.727 31.1591 645.068 29.9773 645.068 28.6136C645.068 26.8106 644.432 25.3258 643.159 24.1591C641.902 22.9924 640.03 22.4091 637.545 22.4091H629.023V35.25ZM662.653 62V15.4545H692.926V22.5227H671.085V35.1591H691.358V42.2273H671.085V54.9318H693.108V62H662.653ZM701.528 62V15.4545H718.983C722.559 15.4545 725.559 16.0758 727.983 17.3182C730.422 18.5606 732.263 20.303 733.506 22.5455C734.763 24.7727 735.392 27.3712 735.392 30.3409C735.392 33.3258 734.756 35.9167 733.483 38.1136C732.225 40.2955 730.369 41.9848 727.915 43.1818C725.46 44.3636 722.445 44.9545 718.869 44.9545H706.438V37.9545H717.733C719.824 37.9545 721.536 37.6667 722.869 37.0909C724.203 36.5 725.188 35.6439 725.824 34.5227C726.475 33.3864 726.801 31.9924 726.801 30.3409C726.801 28.6894 726.475 27.2803 725.824 26.1136C725.172 24.9318 724.18 24.0379 722.847 23.4318C721.513 22.8106 719.794 22.5 717.688 22.5H709.96V62H701.528ZM725.574 40.9091L737.097 62H727.688L716.369 40.9091H725.574ZM774.335 30.3182C773.956 29.0909 773.434 27.9924 772.767 27.0227C772.116 26.0379 771.328 25.197 770.403 24.5C769.494 23.803 768.449 23.2803 767.267 22.9318C766.085 22.5682 764.797 22.3864 763.403 22.3864C760.903 22.3864 758.676 23.0152 756.722 24.2727C754.767 25.5303 753.229 27.3788 752.108 29.8182C751.002 32.2424 750.449 35.197 750.449 38.6818C750.449 42.197 751.002 45.1742 752.108 47.6136C753.214 50.053 754.752 51.9091 756.722 53.1818C758.691 54.4394 760.979 55.0682 763.585 55.0682C765.949 55.0682 767.994 54.6136 769.722 53.7045C771.464 52.7955 772.805 51.5076 773.744 49.8409C774.684 48.1591 775.153 46.1894 775.153 43.9318L777.062 44.2273H764.426V37.6364H783.312V43.2273C783.312 47.2121 782.464 50.6591 780.767 53.5682C779.07 56.4773 776.737 58.7197 773.767 60.2955C770.797 61.8561 767.388 62.6364 763.54 62.6364C759.252 62.6364 755.487 61.6742 752.244 59.75C749.017 57.8106 746.494 55.0606 744.676 51.5C742.873 47.9242 741.972 43.6818 741.972 38.7727C741.972 35.0152 742.502 31.6591 743.562 28.7045C744.638 25.75 746.138 23.2424 748.062 21.1818C749.987 19.1061 752.244 17.5303 754.835 16.4545C757.426 15.3636 760.244 14.8182 763.29 14.8182C765.866 14.8182 768.267 15.197 770.494 15.9545C772.722 16.697 774.699 17.7576 776.426 19.1364C778.169 20.5152 779.6 22.1515 780.722 24.0455C781.843 25.9394 782.578 28.0303 782.926 30.3182H774.335Z" fill="white"/>
<path d="M375.909 110.091V145H371.818L352.795 117.591H352.455V145H348.227V110.091H352.318L371.409 137.568H371.75V110.091H375.909ZM394.459 145.545C392.095 145.545 390.021 144.983 388.237 143.858C386.464 142.733 385.078 141.159 384.078 139.136C383.089 137.114 382.595 134.75 382.595 132.045C382.595 129.318 383.089 126.937 384.078 124.903C385.078 122.869 386.464 121.29 388.237 120.165C390.021 119.04 392.095 118.477 394.459 118.477C396.822 118.477 398.891 119.04 400.663 120.165C402.447 121.29 403.834 122.869 404.822 124.903C405.822 126.937 406.322 129.318 406.322 132.045C406.322 134.75 405.822 137.114 404.822 139.136C403.834 141.159 402.447 142.733 400.663 143.858C398.891 144.983 396.822 145.545 394.459 145.545ZM394.459 141.932C396.254 141.932 397.732 141.472 398.891 140.551C400.05 139.631 400.908 138.42 401.464 136.92C402.021 135.42 402.3 133.795 402.3 132.045C402.3 130.295 402.021 128.665 401.464 127.153C400.908 125.642 400.05 124.42 398.891 123.489C397.732 122.557 396.254 122.091 394.459 122.091C392.663 122.091 391.186 122.557 390.027 123.489C388.868 124.42 388.01 125.642 387.453 127.153C386.896 128.665 386.618 130.295 386.618 132.045C386.618 133.795 386.896 135.42 387.453 136.92C388.01 138.42 388.868 139.631 390.027 140.551C391.186 141.472 392.663 141.932 394.459 141.932ZM423.849 118.818V122.227H410.281V118.818H423.849ZM414.236 112.545H418.259V137.5C418.259 138.636 418.423 139.489 418.753 140.057C419.094 140.614 419.526 140.989 420.048 141.182C420.582 141.364 421.145 141.455 421.736 141.455C422.179 141.455 422.543 141.432 422.827 141.386C423.111 141.33 423.338 141.284 423.509 141.25L424.327 144.864C424.054 144.966 423.673 145.068 423.185 145.17C422.696 145.284 422.077 145.341 421.327 145.341C420.19 145.341 419.077 145.097 417.986 144.608C416.906 144.119 416.009 143.375 415.293 142.375C414.588 141.375 414.236 140.114 414.236 138.591V112.545ZM437.605 145.614C435.946 145.614 434.44 145.301 433.088 144.676C431.736 144.04 430.662 143.125 429.866 141.932C429.071 140.727 428.673 139.273 428.673 137.568C428.673 136.068 428.969 134.852 429.56 133.92C430.151 132.977 430.94 132.239 431.929 131.705C432.918 131.17 434.009 130.773 435.202 130.511C436.406 130.239 437.616 130.023 438.832 129.864C440.423 129.659 441.713 129.506 442.702 129.403C443.702 129.29 444.429 129.102 444.884 128.841C445.349 128.58 445.582 128.125 445.582 127.477V127.341C445.582 125.659 445.122 124.352 444.202 123.42C443.293 122.489 441.912 122.023 440.06 122.023C438.139 122.023 436.634 122.443 435.543 123.284C434.452 124.125 433.685 125.023 433.241 125.977L429.423 124.614C430.105 123.023 431.014 121.784 432.151 120.898C433.298 120 434.548 119.375 435.901 119.023C437.264 118.659 438.605 118.477 439.923 118.477C440.764 118.477 441.73 118.58 442.821 118.784C443.923 118.977 444.986 119.381 446.009 119.994C447.043 120.608 447.901 121.534 448.582 122.773C449.264 124.011 449.605 125.67 449.605 127.75V145H445.582V141.455H445.378C445.105 142.023 444.651 142.631 444.014 143.278C443.378 143.926 442.531 144.477 441.474 144.932C440.418 145.386 439.128 145.614 437.605 145.614ZM438.219 142C439.81 142 441.151 141.688 442.241 141.062C443.344 140.438 444.173 139.631 444.73 138.642C445.298 137.653 445.582 136.614 445.582 135.523V131.841C445.412 132.045 445.037 132.233 444.457 132.403C443.889 132.562 443.23 132.705 442.48 132.83C441.741 132.943 441.02 133.045 440.315 133.136C439.622 133.216 439.06 133.284 438.628 133.341C437.582 133.477 436.605 133.699 435.696 134.006C434.798 134.301 434.071 134.75 433.514 135.352C432.969 135.943 432.696 136.75 432.696 137.773C432.696 139.17 433.213 140.227 434.247 140.943C435.293 141.648 436.616 142 438.219 142ZM456.947 145V118.818H460.97V145H456.947ZM458.993 114.455C458.209 114.455 457.533 114.188 456.964 113.653C456.408 113.119 456.129 112.477 456.129 111.727C456.129 110.977 456.408 110.335 456.964 109.801C457.533 109.267 458.209 109 458.993 109C459.777 109 460.447 109.267 461.004 109.801C461.572 110.335 461.857 110.977 461.857 111.727C461.857 112.477 461.572 113.119 461.004 113.653C460.447 114.188 459.777 114.455 458.993 114.455ZM468.338 145V118.818H472.224V122.773H472.497C472.974 121.477 473.838 120.426 475.088 119.619C476.338 118.812 477.747 118.409 479.315 118.409C479.611 118.409 479.98 118.415 480.423 118.426C480.866 118.437 481.202 118.455 481.429 118.477V122.568C481.293 122.534 480.98 122.483 480.491 122.415C480.014 122.335 479.509 122.295 478.974 122.295C477.702 122.295 476.565 122.562 475.565 123.097C474.577 123.619 473.793 124.347 473.213 125.278C472.645 126.199 472.361 127.25 472.361 128.432V145H468.338ZM496.378 145.545C493.855 145.545 491.679 144.989 489.849 143.875C488.031 142.75 486.628 141.182 485.639 139.17C484.662 137.148 484.173 134.795 484.173 132.114C484.173 129.432 484.662 127.068 485.639 125.023C486.628 122.966 488.003 121.364 489.764 120.216C491.537 119.057 493.605 118.477 495.969 118.477C497.332 118.477 498.679 118.705 500.009 119.159C501.338 119.614 502.548 120.352 503.639 121.375C504.73 122.386 505.599 123.727 506.247 125.398C506.895 127.068 507.219 129.125 507.219 131.568V133.273H487.037V129.795H503.128C503.128 128.318 502.832 127 502.241 125.841C501.662 124.682 500.832 123.767 499.753 123.097C498.685 122.426 497.423 122.091 495.969 122.091C494.366 122.091 492.98 122.489 491.81 123.284C490.651 124.068 489.759 125.091 489.134 126.352C488.509 127.614 488.196 128.966 488.196 130.409V132.727C488.196 134.705 488.537 136.381 489.219 137.756C489.912 139.119 490.872 140.159 492.099 140.875C493.327 141.58 494.753 141.932 496.378 141.932C497.435 141.932 498.389 141.784 499.241 141.489C500.105 141.182 500.849 140.727 501.474 140.125C502.099 139.511 502.582 138.75 502.923 137.841L506.81 138.932C506.401 140.25 505.713 141.409 504.747 142.409C503.781 143.398 502.588 144.17 501.168 144.727C499.747 145.273 498.151 145.545 496.378 145.545ZM534.543 145.614C532.884 145.614 531.378 145.301 530.026 144.676C528.673 144.04 527.599 143.125 526.804 141.932C526.009 140.727 525.611 139.273 525.611 137.568C525.611 136.068 525.906 134.852 526.497 133.92C527.088 132.977 527.878 132.239 528.866 131.705C529.855 131.17 530.946 130.773 532.139 130.511C533.344 130.239 534.554 130.023 535.77 129.864C537.361 129.659 538.651 129.506 539.639 129.403C540.639 129.29 541.366 129.102 541.821 128.841C542.287 128.58 542.52 128.125 542.52 127.477V127.341C542.52 125.659 542.06 124.352 541.139 123.42C540.23 122.489 538.849 122.023 536.997 122.023C535.077 122.023 533.571 122.443 532.48 123.284C531.389 124.125 530.622 125.023 530.179 125.977L526.361 124.614C527.043 123.023 527.952 121.784 529.088 120.898C530.236 120 531.486 119.375 532.838 119.023C534.202 118.659 535.543 118.477 536.861 118.477C537.702 118.477 538.668 118.58 539.759 118.784C540.861 118.977 541.923 119.381 542.946 119.994C543.98 120.608 544.838 121.534 545.52 122.773C546.202 124.011 546.543 125.67 546.543 127.75V145H542.52V141.455H542.315C542.043 142.023 541.588 142.631 540.952 143.278C540.315 143.926 539.469 144.477 538.412 144.932C537.355 145.386 536.065 145.614 534.543 145.614ZM535.156 142C536.747 142 538.088 141.688 539.179 141.062C540.281 140.438 541.111 139.631 541.668 138.642C542.236 137.653 542.52 136.614 542.52 135.523V131.841C542.349 132.045 541.974 132.233 541.395 132.403C540.827 132.562 540.168 132.705 539.418 132.83C538.679 132.943 537.957 133.045 537.253 133.136C536.56 133.216 535.997 133.284 535.565 133.341C534.52 133.477 533.543 133.699 532.634 134.006C531.736 134.301 531.009 134.75 530.452 135.352C529.906 135.943 529.634 136.75 529.634 137.773C529.634 139.17 530.151 140.227 531.185 140.943C532.23 141.648 533.554 142 535.156 142ZM535.429 115.273L530.111 107.364H534.815L538.974 115.273H535.429ZM567.93 145V110.091H588.999V113.841H572.158V125.636H587.908V129.386H572.158V141.25H589.271V145H567.93ZM617.482 118.818L607.8 145H603.709L594.027 118.818H598.391L605.618 139.682H605.891L613.118 118.818H617.482ZM632.831 145.545C630.308 145.545 628.132 144.989 626.303 143.875C624.484 142.75 623.081 141.182 622.092 139.17C621.115 137.148 620.626 134.795 620.626 132.114C620.626 129.432 621.115 127.068 622.092 125.023C623.081 122.966 624.456 121.364 626.217 120.216C627.99 119.057 630.058 118.477 632.422 118.477C633.786 118.477 635.132 118.705 636.462 119.159C637.791 119.614 639.001 120.352 640.092 121.375C641.183 122.386 642.053 123.727 642.7 125.398C643.348 127.068 643.672 129.125 643.672 131.568V133.273H623.49V129.795H639.581C639.581 128.318 639.286 127 638.695 125.841C638.115 124.682 637.286 123.767 636.206 123.097C635.138 122.426 633.876 122.091 632.422 122.091C630.82 122.091 629.433 122.489 628.263 123.284C627.104 124.068 626.212 125.091 625.587 126.352C624.962 127.614 624.649 128.966 624.649 130.409V132.727C624.649 134.705 624.99 136.381 625.672 137.756C626.365 139.119 627.325 140.159 628.553 140.875C629.78 141.58 631.206 141.932 632.831 141.932C633.888 141.932 634.842 141.784 635.695 141.489C636.558 141.182 637.303 140.727 637.928 140.125C638.553 139.511 639.036 138.75 639.376 137.841L643.263 138.932C642.854 140.25 642.166 141.409 641.2 142.409C640.234 143.398 639.041 144.17 637.621 144.727C636.2 145.273 634.604 145.545 632.831 145.545ZM649.791 145V118.818H653.678V122.773H653.95C654.428 121.477 655.291 120.426 656.541 119.619C657.791 118.812 659.2 118.409 660.768 118.409C661.064 118.409 661.433 118.415 661.876 118.426C662.32 118.437 662.655 118.455 662.882 118.477V122.568C662.746 122.534 662.433 122.483 661.945 122.415C661.467 122.335 660.962 122.295 660.428 122.295C659.155 122.295 658.018 122.562 657.018 123.097C656.03 123.619 655.246 124.347 654.666 125.278C654.098 126.199 653.814 127.25 653.814 128.432V145H649.791ZM677.831 145.545C675.308 145.545 673.132 144.989 671.303 143.875C669.484 142.75 668.081 141.182 667.092 139.17C666.115 137.148 665.626 134.795 665.626 132.114C665.626 129.432 666.115 127.068 667.092 125.023C668.081 122.966 669.456 121.364 671.217 120.216C672.99 119.057 675.058 118.477 677.422 118.477C678.786 118.477 680.132 118.705 681.462 119.159C682.791 119.614 684.001 120.352 685.092 121.375C686.183 122.386 687.053 123.727 687.7 125.398C688.348 127.068 688.672 129.125 688.672 131.568V133.273H668.49V129.795H684.581C684.581 128.318 684.286 127 683.695 125.841C683.115 124.682 682.286 123.767 681.206 123.097C680.138 122.426 678.876 122.091 677.422 122.091C675.82 122.091 674.433 122.489 673.263 123.284C672.104 124.068 671.212 125.091 670.587 126.352C669.962 127.614 669.649 128.966 669.649 130.409V132.727C669.649 134.705 669.99 136.381 670.672 137.756C671.365 139.119 672.325 140.159 673.553 140.875C674.78 141.58 676.206 141.932 677.831 141.932C678.888 141.932 679.842 141.784 680.695 141.489C681.558 141.182 682.303 140.727 682.928 140.125C683.553 139.511 684.036 138.75 684.376 137.841L688.263 138.932C687.854 140.25 687.166 141.409 686.2 142.409C685.234 143.398 684.041 144.17 682.621 144.727C681.2 145.273 679.604 145.545 677.831 145.545Z" fill="white"/>
<rect x="93" y="5" width="128" height="27" fill="white"/>
<rect x="142" y="44" width="128" height="27" fill="white"/>
<rect x="51" y="86" width="128" height="27" fill="white"/>
<rect y="124" width="128" height="27" fill="white"/>
</svg>
