<svg width="1009" height="290" viewBox="0 0 1009 290" fill="none" xmlns="http://www.w3.org/2000/svg">
<g clip-path="url(#clip0_501_2)">
<path d="M991.951 154.918C1002.51 149.292 1008.83 138.156 1008.3 126.208C1008.3 106.894 993.343 94.192 972.931 94.192H936.63V197.2H956.288V159.442H972.641L987.602 197.2H1009L992.009 154.86H991.951V154.918ZM970.844 142.448H956.23V111.418H970.844C981.687 111.418 988.298 117.334 988.298 126.788C988.298 136.242 981.687 142.448 970.844 142.448ZM412.24 139.2L387.537 94.366H370.721V197.374H388.987V132.762L406.267 163.676H417.633L434.45 133.226V197.374H453.47V94.25H436.653L412.24 139.084V139.2ZM502.992 94.424L472.142 197.432H491.337L496.382 178.93H529.261L534.48 197.432H554.602L523.752 94.424H502.992ZM500.789 162.284L512.734 118.552L524.854 162.284H500.789ZM795.022 92.858C772.233 92.858 758.548 106.024 758.548 127.194V164.662C758.548 185.832 773.335 198.998 794.732 198.998C816.13 198.998 829.99 186.006 829.99 165.126V145.058H796.646V160.428H811.781V164.952C811.607 174.174 803.953 181.54 794.732 181.366C785.512 181.192 778.148 173.594 778.322 164.372V127.542C777.51 118.958 783.773 111.302 792.413 110.49C793.283 110.49 794.095 110.374 794.964 110.49C802.793 109.446 810.041 114.956 811.085 122.786C811.201 123.656 811.259 124.526 811.201 125.396V127.774H830.105V125.222C830.105 105.328 816.246 92.916 795.196 92.916H795.022V92.858ZM625.87 157.876L590.033 94.366H573.216V197.374H591.135V132.298L627.784 197.374H643.846V94.25H625.928V157.76L625.87 157.876ZM871.335 153.7H910.014V136.474H871.335V111.998H914.537V94.424H851.677V197.432H915.986V179.858H871.335V153.7ZM693.253 94.424L662.403 197.432H681.597L686.642 178.93H719.521L724.74 197.432H744.862L714.012 94.424H693.253ZM691.049 162.284L702.995 118.552L715.114 162.284H691.049ZM309.891 165.126H347.641V148.364H309.891V165.126ZM146.537 -2.13951e-05C66.2229 -0.580021 0.57988 63.858 -5.22064e-06 143.956V145C-0.289948 224.808 64.3672 289.71 144.391 290C224.705 290.58 290.348 226.142 290.928 146.044C291.508 66.004 226.851 0.579979 146.537 -2.13951e-05ZM110.874 108.17H64.3093V137.576H105.945V156.426H64.3093V200.796H43.1434V89.146H110.874V108.17ZM150.48 200.854H129.314V89.146H150.48V200.854ZM248.655 162.748C248.655 186.238 233.752 200.854 208.527 200.854H170.08V89.146H208.527C233.752 89.146 248.655 103.762 248.655 127.252V162.806V162.748ZM227.431 127.6C228.417 117.972 221.458 109.388 211.832 108.402C210.73 108.286 209.628 108.286 208.469 108.402H191.246V181.482H208.527C218.153 182.294 226.677 175.16 227.489 165.532C227.605 164.43 227.489 163.328 227.489 162.226V127.658L227.431 127.6Z" fill="white"/>
</g>
<defs>
<clipPath id="clip0_501_2">
<rect width="1009" height="290" fill="white"/>
</clipPath>
</defs>
</svg>
