<svg width="1009" height="259" viewBox="0 0 1009 259" fill="none" xmlns="http://www.w3.org/2000/svg">
<g clip-path="url(#clip0_501_4)">
<path d="M281.121 139.935C273.969 135.794 268.182 129.643 264.473 122.244C260.396 114.01 258.37 104.908 258.57 95.7169C258.375 86.3689 260.467 77.115 264.662 68.7645C268.536 61.2145 274.485 54.9354 281.806 50.6698C289.5 46.2919 298.226 44.067 307.072 44.2276C312.258 44.252 317.416 45.0013 322.397 46.4539C327.24 47.7923 331.868 49.8181 336.14 52.4697C340.422 55.4381 342.562 58.8565 342.562 62.725C342.632 64.7885 341.989 66.8125 340.744 68.4569C340.222 69.1922 339.531 69.7917 338.73 70.2042C337.929 70.616 337.04 70.8289 336.14 70.8251C334.882 70.8081 333.646 70.4998 332.527 69.9249C331.322 69.309 329.788 68.4095 327.922 67.201C324.936 65.2636 321.773 63.6136 318.477 62.275C315.174 61.0639 311.674 60.4855 308.158 60.5697C304.14 60.3395 300.125 61.0574 296.434 62.6657C292.743 64.2737 289.48 66.7279 286.906 69.8302C282.041 75.9091 279.609 84.4751 279.609 95.5274C279.609 106.58 282.08 115.059 287.024 120.964C291.951 126.933 298.964 129.917 308.064 129.917C311.688 129.982 315.292 129.363 318.69 128.093C321.985 126.829 325.149 125.242 328.134 123.357C329.55 122.464 331.025 121.673 332.551 120.988C333.802 120.371 335.17 120.024 336.565 119.969C337.485 119.946 338.397 120.15 339.221 120.563C340.044 120.976 340.754 121.585 341.287 122.338C342.529 123.984 343.171 126.007 343.105 128.07C343.117 129.887 342.591 131.667 341.594 133.185C340.215 135.089 338.474 136.699 336.47 137.923C332.159 140.741 327.422 142.844 322.444 144.151C317.16 145.62 311.704 146.369 306.221 146.377C297.494 146.574 288.873 144.415 281.262 140.125" fill="white"/>
<path d="M423.883 120.487C428.605 114.597 430.967 105.913 430.967 94.4345C430.967 82.9557 428.566 74.3816 423.764 68.7133C419.042 62.745 412.226 59.7608 403.316 59.7608C399.447 59.5485 395.582 60.2476 392.031 61.8022C388.48 63.357 385.341 65.7234 382.866 68.7133C378.143 74.6816 375.782 83.295 375.782 94.5526C375.782 105.811 378.143 114.495 382.866 120.605C387.589 126.495 394.436 129.44 403.409 129.44C412.383 129.44 419.239 126.495 423.977 120.605L423.883 120.487ZM378.049 139.292C370.796 135.177 364.934 128.984 361.212 121.506C357.129 113.165 355.104 103.961 355.309 94.6714C355.089 85.3114 357.113 76.0354 361.212 67.6242C364.904 60.1378 370.732 53.9218 377.954 49.7661C385.781 45.6595 394.482 43.5146 403.316 43.5146C412.148 43.5146 420.849 45.6595 428.676 49.7661C435.929 53.8813 441.791 60.0748 445.513 67.5528C449.62 75.9621 451.652 85.2387 451.439 94.6C451.637 103.892 449.605 113.096 445.513 121.434C441.798 128.918 435.934 135.113 428.676 139.221C420.849 143.328 412.148 145.473 403.316 145.473C394.482 145.473 385.781 143.328 377.954 139.221" fill="white"/>
<path d="M534.062 120.274C538.785 114.258 541.264 105.661 541.264 94.5532C541.264 83.4453 538.903 74.8477 534.18 68.808C529.458 62.7688 522.657 59.7609 513.826 59.7609C509.944 59.554 506.067 60.2552 502.502 61.8089C498.937 63.3627 495.78 65.7265 493.282 68.7132C488.402 74.6822 485.962 83.161 485.962 94.1502C485.962 105.14 488.434 113.753 493.376 119.99C495.909 122.895 499.027 125.229 502.524 126.837C506.022 128.444 509.82 129.289 513.667 129.316C517.515 129.343 521.324 128.551 524.844 126.992C528.363 125.434 531.513 123.144 534.086 120.274H534.062ZM558.502 8.36623C559.45 9.27987 560.192 10.387 560.677 11.6128C561.161 12.8386 561.378 14.1544 561.312 15.4715V135.171C561.374 136.48 561.164 137.787 560.697 139.01C560.23 140.233 559.514 141.345 558.596 142.277C556.538 143.976 553.954 144.905 551.288 144.905C548.622 144.905 546.039 143.976 543.98 142.277C543.062 141.345 542.347 140.233 541.88 139.01C541.412 137.787 541.203 136.48 541.264 135.171V127.119C538.486 132.859 534.008 137.598 528.442 140.69C522.475 143.933 515.77 145.565 508.985 145.427C501.001 145.547 493.158 143.306 486.434 138.984C479.675 134.525 474.326 128.223 471.014 120.819C467.201 112.432 465.312 103.295 465.489 94.0794C465.283 84.8609 467.173 75.717 471.014 67.3399C474.277 60.0329 479.625 53.8591 486.383 49.5975C493.141 45.336 501.006 43.1777 508.985 43.3952C515.741 43.2482 522.418 44.8815 528.348 48.132C533.835 51.2515 538.267 55.9443 541.076 61.6083V15.0215C541.018 13.7688 541.228 12.5184 541.693 11.3541C542.157 10.1899 542.865 9.13881 543.767 8.27148C545.86 6.59581 548.457 5.68311 551.135 5.68311C553.812 5.68311 556.41 6.59581 558.502 8.27148" fill="white"/>
<path d="M639.448 122.785C644.253 117.5 646.801 110.534 646.536 103.388V98.1769H642.922C634.882 98.0171 626.846 98.4839 618.882 99.5742C614.509 100.008 610.34 101.648 606.839 104.311C605.602 105.543 604.64 107.025 604.017 108.659C603.395 110.292 603.125 112.039 603.226 113.785C603.173 116.023 603.614 118.244 604.516 120.291C605.418 122.338 606.76 124.16 608.445 125.627C612.034 128.806 616.693 130.499 621.479 130.364C624.85 130.47 628.204 129.85 631.319 128.547C634.428 127.244 637.228 125.287 639.517 122.808L639.448 122.785ZM656.664 53.3429C662.957 59.9271 666.11 69.9137 666.11 83.3034V135.408C666.186 136.709 665.997 138.01 665.549 139.233C665.101 140.455 664.408 141.572 663.512 142.514C661.532 144.285 658.934 145.197 656.285 145.048C654.999 145.14 653.706 144.953 652.495 144.499C651.284 144.046 650.187 143.336 649.279 142.42C648.365 141.503 647.665 140.401 647.21 139.187C646.763 137.973 646.58 136.676 646.674 135.385V127.925C644.329 133.324 640.368 137.859 635.342 140.903C630.015 143.99 623.945 145.547 617.796 145.403C611.695 145.475 605.659 144.138 600.156 141.496C595.043 139.078 590.702 135.281 587.618 130.53C584.618 125.858 583.051 120.407 583.107 114.851C582.765 108.754 584.74 102.753 588.633 98.0588C592.317 93.9849 598.393 91.0715 606.863 89.3191C618.417 87.3273 630.136 86.4549 641.856 86.7139H646.46V80.8637C646.46 73.3799 644.928 67.932 641.856 64.5928C638.785 61.2534 633.829 59.5481 627.029 59.5481C622.549 59.5247 618.089 60.1387 613.782 61.3718C609.116 62.7724 604.561 64.5221 600.156 66.6061C597.85 68.1285 595.252 69.1525 592.53 69.6136C591.599 69.6376 590.674 69.4525 589.824 69.0716C588.975 68.6901 588.221 68.1228 587.618 67.4115C586.329 65.824 585.657 63.8209 585.729 61.7745C585.698 59.8592 586.295 57.9869 587.429 56.4455C588.943 54.5844 590.814 53.0463 592.931 51.9218C598.152 49.1679 603.709 47.1058 609.46 45.7876C615.42 44.268 621.54 43.4728 627.69 43.4192C640.646 43.4192 650.301 46.7034 656.664 53.2718" fill="white"/>
<path d="M759.739 120.084C764.601 113.927 767.035 105.282 767.035 94.1503C767.035 83.019 764.633 74.5402 759.834 68.714C757.355 65.7241 754.221 63.3571 750.664 61.8025C747.114 60.2479 743.255 59.5487 739.382 59.7611C730.554 59.7611 723.768 62.7769 719.026 68.8088C714.29 74.8403 711.931 83.4214 711.944 94.5534C711.944 105.661 714.303 114.258 719.026 120.274C723.749 126.29 730.554 129.322 739.382 129.322C743.261 129.506 747.133 128.765 750.671 127.159C754.208 125.554 757.317 123.129 759.739 120.084ZM766.821 49.6954C773.506 54.0223 778.834 60.1662 782.17 67.4114C785.992 75.7935 787.871 84.935 787.669 94.1503C787.84 103.338 785.967 112.447 782.196 120.819C778.853 128.192 773.499 134.465 766.752 138.914C760.023 143.227 752.184 145.459 744.2 145.332C737.415 145.47 730.711 143.838 724.746 140.595C719.177 137.504 714.7 132.765 711.919 127.024V135.077C711.976 136.384 711.761 137.689 711.294 138.911C710.828 140.132 710.115 141.245 709.207 142.182C708.236 143.11 707.082 143.83 705.827 144.299C704.566 144.767 703.222 144.974 701.886 144.905C700.53 144.965 699.18 144.754 697.906 144.287C696.632 143.82 695.466 143.104 694.469 142.182C693.536 141.259 692.804 140.149 692.319 138.926C691.833 137.703 691.613 136.392 691.663 135.077V15.4243C691.594 14.0964 691.821 12.7701 692.325 11.5414C692.836 10.3126 693.605 9.21197 694.589 8.31905C696.677 6.53271 699.357 5.60227 702.1 5.71382C704.692 5.60651 707.227 6.50555 709.182 8.22436C710.09 9.08765 710.803 10.1375 711.276 11.3023C711.742 12.4671 711.957 13.7196 711.9 14.9743V61.9638C714.694 56.2112 719.165 51.4456 724.72 48.298C730.674 45.025 737.39 43.3908 744.175 43.5611C752.172 43.3966 760.042 45.5514 766.846 49.7664" fill="white"/>
<path d="M875.301 120.487C880.025 114.597 882.383 105.913 882.383 94.4345C882.383 82.9551 879.993 74.3816 875.207 68.7133C872.735 65.7303 869.607 63.3671 866.063 61.813C862.518 60.2586 858.665 59.5558 854.806 59.7607C845.971 59.7607 839.154 62.7449 834.355 68.7133C829.556 74.6816 827.147 83.295 827.128 94.5526C827.128 105.953 829.493 114.637 834.21 120.605C838.933 126.574 845.801 129.479 854.806 129.321C863.748 129.321 870.59 126.376 875.345 120.487H875.301ZM829.442 139.174C822.177 135.072 816.313 128.875 812.604 121.387C808.512 113.048 806.481 103.845 806.677 94.5526C806.469 85.1907 808.499 75.9147 812.604 67.5054C816.313 60.0465 822.165 53.8692 829.398 49.766C837.218 45.6595 845.914 43.5146 854.743 43.5146C863.572 43.5146 872.268 45.6595 880.094 49.766C887.353 53.8798 893.224 60.073 896.951 67.5528C901.05 75.964 903.074 85.24 902.86 94.6C903.061 103.891 901.037 113.094 896.951 121.434C893.23 128.919 887.359 135.115 880.094 139.221C872.268 143.327 863.572 145.473 854.743 145.473C845.914 145.473 837.218 143.327 829.398 139.221" fill="white"/>
<path d="M1009 135.765C1009.02 136.981 1008.79 138.188 1008.33 139.312C1007.86 140.437 1007.18 141.454 1006.31 142.301C1005.46 143.174 1004.45 143.865 1003.33 144.333C1002.21 144.801 1001 145.037 999.793 145.025C998.437 144.997 997.1 144.676 995.877 144.083C994.653 143.491 993.575 142.64 992.711 141.591L962.012 107.012L931.528 141.591C930.664 142.64 929.579 143.491 928.356 144.083C927.132 144.676 925.802 144.997 924.44 145.025C923.241 145.005 922.062 144.739 920.965 144.242C919.874 143.744 918.896 143.027 918.089 142.136C917.225 141.264 916.544 140.229 916.084 139.091C915.617 137.952 915.384 136.733 915.396 135.504C915.396 132.944 916.399 130.486 918.184 128.659L949.873 93.6779L919.792 60.1646C917.976 58.3374 916.904 55.8965 916.79 53.3199C916.784 52.0942 917.023 50.8797 917.509 49.7541C917.995 48.6286 918.707 47.6166 919.603 46.783C920.441 45.9285 921.438 45.2497 922.541 44.7863C923.645 44.3227 924.83 44.0837 926.022 44.083C927.378 44.1158 928.709 44.4369 929.932 45.0248C931.156 45.6128 932.234 46.4543 933.111 47.4936L962.107 80.5567L991.172 47.3988C992.061 46.3506 993.165 45.5043 994.407 44.9163C995.65 44.3283 997.006 44.012 998.374 43.9883C999.572 43.9889 1000.75 44.228 1001.86 44.6915C1002.96 45.155 1003.96 45.8338 1004.8 46.6883C1005.7 47.5219 1006.41 48.5338 1006.89 49.6594C1007.37 50.7849 1007.62 51.9994 1007.61 53.2251C1007.59 54.5121 1007.32 55.7828 1006.8 56.9596C1006.28 58.1364 1005.53 59.1947 1004.59 60.0698L974.524 93.7486L1005.93 128.73C1006.89 129.643 1007.66 130.746 1008.17 131.969C1008.68 133.192 1008.94 134.508 1008.93 135.835" fill="white"/>
<path d="M54.3108 123.544L101.538 150.851V160.325C101.537 162.029 101.09 163.704 100.24 165.179C99.3897 166.656 98.1675 167.881 96.6963 168.733C95.2244 169.586 93.5551 170.034 91.8556 170.034C90.156 170.033 88.4868 169.585 87.0155 168.733L33.9324 137.943C29.5216 135.4 25.8529 131.742 23.2923 127.333C20.7317 122.923 19.3687 117.917 19.3393 112.815V54.8592C19.342 53.1583 19.7901 51.4878 20.6387 50.0152C21.4873 48.5426 22.7067 47.3193 24.1749 46.4679C25.643 45.6166 27.3083 45.1669 29.0042 45.164C30.7 45.161 32.3669 45.605 33.8379 46.4513L39.7649 49.8855V98.3435C39.7842 103.452 41.1372 108.467 43.6892 112.888C46.2412 117.309 49.9032 120.983 54.3108 123.544ZM106.26 65.9906L43.5194 29.6593C39.1086 27.1078 34.1062 25.7652 29.0144 25.7664C23.9226 25.7675 18.9206 27.1123 14.511 29.6657C10.1013 32.2191 6.43906 35.8913 3.89196 40.3135C1.34487 44.7356 0.00262522 49.7522 0 54.8592V112.815C0.012736 121.328 2.25257 129.688 6.49569 137.061C10.7389 144.434 16.8367 150.561 24.1801 154.83L77.2629 185.62C81.6792 188.174 86.6876 189.517 91.7856 189.513C96.8836 189.508 101.89 188.157 106.302 185.596C110.714 183.033 114.375 179.351 116.917 174.919C119.459 170.487 120.792 165.462 120.782 160.349V145.286C120.783 143.531 120.312 141.808 119.418 140.299C118.525 138.79 117.242 137.551 115.705 136.711L63.9447 106.727C62.4973 105.865 61.2998 104.637 60.4713 103.166C59.6429 101.695 59.2123 100.033 59.2223 98.3435V61.0881L96.6023 82.9248C98.0723 83.751 99.3014 84.9487 100.167 86.3985C101.033 87.8489 101.505 89.5008 101.538 91.1906V109.262C101.473 110.576 101.675 111.889 102.132 113.122C102.588 114.356 103.29 115.483 104.194 116.436C105.099 117.389 106.187 118.147 107.392 118.666C108.597 119.184 109.895 119.452 111.207 119.452C112.519 119.452 113.816 119.184 115.022 118.666C116.228 118.147 117.316 117.389 118.22 116.436C119.124 115.483 119.826 114.356 120.283 113.122C120.739 111.889 120.941 110.576 120.877 109.262V91.1906C120.855 86.0745 119.493 81.053 116.928 76.6304C114.363 72.2078 110.684 68.5389 106.26 65.9906Z" fill="white"/>
<path d="M136.369 34.7037L83.286 3.91424C78.8867 1.34268 73.8846 -0.00828617 68.793 3.82385e-05C63.7013 0.00836267 58.7033 1.37568 54.3126 3.96161C52.5373 5.00047 50.8753 6.22293 49.3538 7.60898C51.9712 8.53108 54.5002 9.68837 56.91 11.0669L73.6519 20.7774L126.735 51.5668C131.127 54.1268 134.774 57.7957 137.314 62.2086C139.853 66.6211 141.196 71.6242 141.21 76.7196V83.5881C141.332 86.0771 142.405 88.4239 144.205 90.1421C146.005 91.8603 148.394 92.8186 150.88 92.8186C153.364 92.8186 155.754 91.8603 157.554 90.1421C159.354 88.4239 160.427 86.0771 160.549 83.5881V76.7196C160.532 68.2073 158.29 59.8485 154.047 52.4763C149.804 45.1042 143.709 38.9763 136.369 34.7037Z" fill="white"/>
<path d="M150.867 111.346C149.599 111.346 148.343 111.597 147.171 112.084C146 112.57 144.935 113.284 144.038 114.184C143.141 115.083 142.43 116.151 141.944 117.326C141.459 118.501 141.21 119.761 141.21 121.033V153.977C141.206 156.768 140.938 159.552 140.406 162.291C142.361 161.651 144.245 160.809 146.026 159.78C150.451 157.263 154.129 153.612 156.684 149.201C159.24 144.79 160.582 139.777 160.572 134.675V120.986C160.553 118.419 159.522 115.963 157.704 114.156C155.885 112.35 153.427 111.34 150.867 111.346Z" fill="white"/>
<path d="M284.689 205.659C287.918 205.659 290.769 206.442 293.241 208.009C295.713 209.575 297.63 211.799 298.992 214.679C300.405 217.56 301.111 220.921 301.111 224.761C301.111 228.552 300.405 231.912 298.992 234.844C297.63 237.775 295.687 240.049 293.165 241.666C290.693 243.283 287.868 244.092 284.689 244.092C281.915 244.092 279.468 243.511 277.349 242.348C275.23 241.135 273.616 239.417 272.506 237.193V240.226C272.506 241.337 272.153 242.247 271.446 242.955C270.79 243.612 269.882 243.94 268.722 243.94C267.562 243.94 266.628 243.612 265.922 242.955C265.216 242.247 264.863 241.337 264.863 240.226V193.378C264.863 192.266 265.216 191.382 265.922 190.725C266.679 190.068 267.637 189.74 268.798 189.74C269.908 189.74 270.79 190.068 271.446 190.725C272.153 191.332 272.506 192.165 272.506 193.227V212.633C273.616 210.409 275.23 208.691 277.349 207.478C279.468 206.265 281.915 205.659 284.689 205.659ZM282.873 238.027C286.152 238.027 288.7 236.865 290.516 234.54C292.383 232.216 293.316 228.956 293.316 224.761C293.316 220.617 292.408 217.434 290.592 215.21C288.776 212.936 286.203 211.799 282.873 211.799C279.543 211.799 276.971 212.936 275.154 215.21C273.389 217.484 272.506 220.719 272.506 224.913C272.506 229.108 273.389 232.342 275.154 234.616C276.971 236.89 279.543 238.027 282.873 238.027Z" fill="white"/>
<path d="M335.315 208.084C335.617 207.326 336.046 206.77 336.601 206.417C337.207 206.063 337.837 205.886 338.493 205.886C339.452 205.886 340.284 206.214 340.99 206.871C341.747 207.528 342.125 208.312 342.125 209.221C342.125 209.727 342.024 210.207 341.823 210.662L320.785 255.387C320.482 256.094 320.028 256.625 319.423 256.978C318.868 257.383 318.263 257.585 317.607 257.585C316.699 257.585 315.866 257.282 315.109 256.675C314.403 256.069 314.05 255.311 314.05 254.401C314.05 253.997 314.176 253.491 314.428 252.885L319.65 241.742L305.045 210.662C304.843 210.257 304.742 209.803 304.742 209.297C304.742 208.337 305.146 207.528 305.953 206.871C306.76 206.214 307.668 205.886 308.677 205.886C310.191 205.886 311.275 206.594 311.931 208.009L323.661 234.085L335.315 208.084Z" fill="white"/>
<path d="M373.092 243.94C371.932 243.94 370.998 243.586 370.292 242.879C369.586 242.171 369.232 241.211 369.232 239.998V193.681C369.232 192.519 369.586 191.584 370.292 190.877C370.998 190.119 371.932 189.74 373.092 189.74C374.302 189.74 375.262 190.093 375.967 190.801C376.674 191.508 377.027 192.469 377.027 193.681V239.998C377.027 241.211 376.674 242.171 375.967 242.879C375.311 243.586 374.353 243.94 373.092 243.94Z" fill="white"/>
<path d="M401.365 244.092C396.219 244.092 392.006 243.031 388.727 240.908C387.819 240.352 387.163 239.771 386.759 239.164C386.406 238.558 386.229 237.876 386.229 237.118C386.229 236.309 386.457 235.627 386.911 235.071C387.365 234.515 387.945 234.237 388.651 234.237C389.307 234.237 390.341 234.641 391.754 235.45C393.267 236.259 394.73 236.916 396.143 237.421C397.606 237.926 399.422 238.179 401.592 238.179C404.013 238.179 405.905 237.749 407.267 236.89C408.629 236.031 409.31 234.818 409.31 233.252C409.31 232.241 409.033 231.432 408.478 230.826C407.973 230.219 407.065 229.689 405.754 229.234C404.442 228.729 402.5 228.198 399.927 227.642C395.487 226.682 392.284 225.393 390.316 223.776C388.399 222.108 387.44 219.859 387.44 217.029C387.44 214.856 388.071 212.911 389.332 211.192C390.593 209.424 392.334 208.059 394.554 207.099C396.774 206.139 399.296 205.659 402.121 205.659C404.139 205.659 406.107 205.937 408.024 206.493C409.941 206.998 411.631 207.756 413.094 208.767C414.759 209.879 415.591 211.167 415.591 212.633C415.591 213.441 415.339 214.124 414.835 214.679C414.381 215.235 413.826 215.513 413.17 215.513C412.716 215.513 412.262 215.412 411.808 215.21C411.354 215.008 410.748 214.679 409.991 214.225C408.629 213.416 407.343 212.784 406.132 212.33C404.972 211.875 403.509 211.647 401.743 211.647C399.624 211.647 397.909 212.102 396.597 213.012C395.336 213.921 394.705 215.16 394.705 216.726C394.705 218.141 395.285 219.253 396.446 220.062C397.656 220.82 399.901 221.552 403.181 222.26C406.561 222.967 409.209 223.776 411.127 224.686C413.044 225.595 414.406 226.732 415.213 228.097C416.071 229.411 416.5 231.104 416.5 233.176C416.5 236.461 415.112 239.114 412.337 241.135C409.613 243.106 405.955 244.092 401.365 244.092Z" fill="white"/>
<path d="M440.52 205.659C445.414 205.659 449.046 206.897 451.417 209.373C453.839 211.849 455.05 215.614 455.05 220.668V240.302C455.05 241.464 454.722 242.374 454.066 243.03C453.41 243.637 452.502 243.94 451.341 243.94C450.232 243.94 449.349 243.612 448.693 242.955C448.037 242.298 447.709 241.413 447.709 240.302V237.497C446.751 239.619 445.313 241.262 443.396 242.424C441.529 243.536 439.334 244.092 436.812 244.092C434.39 244.092 432.17 243.612 430.152 242.651C428.134 241.641 426.545 240.251 425.385 238.482C424.275 236.713 423.72 234.743 423.72 232.569C423.72 229.891 424.401 227.794 425.763 226.278C427.176 224.711 429.471 223.599 432.65 222.942C435.879 222.285 440.293 221.957 445.893 221.957H447.633V219.758C447.633 216.928 447.053 214.882 445.893 213.618C444.733 212.355 442.866 211.723 440.293 211.723C438.527 211.723 436.862 211.951 435.298 212.405C433.734 212.86 432.019 213.517 430.152 214.376C428.79 215.134 427.832 215.513 427.277 215.513C426.52 215.513 425.889 215.235 425.385 214.679C424.931 214.124 424.704 213.416 424.704 212.557C424.704 211.799 424.906 211.142 425.309 210.586C425.763 209.98 426.47 209.398 427.428 208.843C429.194 207.882 431.262 207.124 433.634 206.568C436.005 205.962 438.3 205.659 440.52 205.659ZM438.174 238.406C440.949 238.406 443.219 237.471 444.985 235.602C446.751 233.681 447.633 231.23 447.633 228.249V226.278H446.271C442.336 226.278 439.309 226.454 437.19 226.808C435.071 227.162 433.558 227.768 432.65 228.628C431.742 229.436 431.288 230.624 431.288 232.19C431.288 234.01 431.943 235.501 433.255 236.663C434.567 237.825 436.206 238.406 438.174 238.406Z" fill="white"/>
<path d="M485.332 205.659C488.56 205.659 491.411 206.442 493.883 208.009C496.355 209.575 498.272 211.799 499.634 214.679C501.047 217.56 501.753 220.921 501.753 224.761C501.753 228.552 501.047 231.912 499.634 234.844C498.272 237.775 496.33 240.049 493.807 241.666C491.335 243.283 488.51 244.092 485.332 244.092C482.557 244.092 480.11 243.511 477.991 242.348C475.872 241.135 474.258 239.417 473.148 237.193V240.226C473.148 241.337 472.795 242.247 472.088 242.955C471.433 243.612 470.524 243.94 469.364 243.94C468.204 243.94 467.27 243.612 466.564 242.955C465.858 242.247 465.505 241.337 465.505 240.226V193.378C465.505 192.266 465.858 191.382 466.564 190.725C467.321 190.068 468.279 189.74 469.44 189.74C470.55 189.74 471.433 190.068 472.088 190.725C472.795 191.332 473.148 192.165 473.148 193.227V212.633C474.258 210.409 475.872 208.691 477.991 207.478C480.11 206.265 482.557 205.659 485.332 205.659ZM483.515 238.027C486.795 238.027 489.342 236.865 491.158 234.54C493.025 232.216 493.958 228.956 493.958 224.761C493.958 220.617 493.05 217.434 491.234 215.21C489.418 212.936 486.845 211.799 483.515 211.799C480.186 211.799 477.613 212.936 475.796 215.21C474.031 217.484 473.148 220.719 473.148 224.913C473.148 229.108 474.031 232.342 475.796 234.616C477.613 236.89 480.186 238.027 483.515 238.027Z" fill="white"/>
<path d="M539.123 234.237C539.829 234.237 540.41 234.515 540.864 235.071C541.317 235.627 541.544 236.334 541.544 237.194C541.544 238.659 540.636 239.897 538.82 240.908C537.055 241.919 535.112 242.702 532.993 243.258C530.925 243.814 528.932 244.092 527.015 244.092C521.163 244.092 516.546 242.399 513.166 239.013C509.786 235.576 508.096 230.902 508.096 224.989C508.096 221.199 508.828 217.838 510.291 214.907C511.805 211.976 513.898 209.702 516.571 208.084C519.296 206.467 522.374 205.659 525.804 205.659C530.749 205.659 534.658 207.251 537.534 210.434C540.41 213.618 541.847 217.914 541.847 223.321C541.847 225.343 540.939 226.353 539.123 226.353H515.739C516.244 234.187 520.003 238.103 527.015 238.103C528.882 238.103 530.496 237.85 531.858 237.345C533.22 236.84 534.658 236.183 536.172 235.374C536.323 235.273 536.726 235.071 537.382 234.768C538.088 234.414 538.669 234.237 539.123 234.237ZM525.956 211.268C523.03 211.268 520.683 212.203 518.918 214.073C517.152 215.943 516.092 218.571 515.739 221.957H535.264C535.112 218.52 534.23 215.892 532.615 214.073C531.051 212.203 528.831 211.268 525.956 211.268Z" fill="white"/>
<path d="M554.129 243.94C553.019 243.94 552.086 243.637 551.329 243.03C550.623 242.424 550.27 241.514 550.27 240.301V193.454C550.27 192.241 550.623 191.332 551.329 190.725C552.086 190.068 553.019 189.74 554.129 189.74C555.239 189.74 556.147 190.068 556.853 190.725C557.56 191.332 557.913 192.241 557.913 193.454V240.301C557.913 241.514 557.56 242.424 556.853 243.03C556.147 243.637 555.239 243.94 554.129 243.94Z" fill="white"/>
<path d="M629.566 215.21C630.525 215.21 631.281 215.488 631.836 216.044C632.441 216.6 632.744 217.358 632.744 218.318V236.056C632.744 237.775 632.492 239.013 631.987 239.771C631.533 240.529 630.601 241.135 629.188 241.59C627.17 242.399 624.774 243.03 621.999 243.485C619.224 243.94 616.475 244.168 613.75 244.168C608.352 244.168 603.685 243.081 599.75 240.908C595.815 238.735 592.813 235.602 590.745 231.508C588.677 227.415 587.642 222.513 587.642 216.802C587.642 211.192 588.677 206.341 590.745 202.247C592.813 198.154 595.765 195.021 599.599 192.848C603.484 190.624 608.024 189.512 613.22 189.512C616.752 189.512 620.006 190.043 622.983 191.104C626.01 192.115 628.583 193.606 630.701 195.577C631.71 196.385 632.214 197.396 632.214 198.609C632.214 199.518 631.962 200.302 631.458 200.959C630.953 201.565 630.348 201.868 629.642 201.868C629.188 201.868 628.784 201.793 628.431 201.641C628.078 201.489 627.624 201.237 627.069 200.883C624.597 199.064 622.352 197.8 620.334 197.093C618.316 196.335 615.995 195.956 613.372 195.956C607.621 195.956 603.231 197.75 600.204 201.338C597.177 204.875 595.664 210.03 595.664 216.802C595.664 223.725 597.203 228.981 600.28 232.569C603.408 236.107 607.974 237.876 613.977 237.876C618.013 237.876 621.898 237.269 625.631 236.056V221.123H615.718C614.709 221.123 613.902 220.87 613.296 220.365C612.741 219.809 612.464 219.076 612.464 218.166C612.464 217.257 612.741 216.549 613.296 216.044C613.902 215.488 614.709 215.21 615.718 215.21H629.566Z" fill="white"/>
<path d="M662.982 205.81C665.404 205.659 666.615 206.695 666.615 208.918C666.615 210.03 666.337 210.864 665.782 211.42C665.227 211.976 664.269 212.304 662.907 212.405L660.637 212.633C657.458 212.936 655.087 214.048 653.523 215.968C652.01 217.889 651.253 220.213 651.253 222.942V240.302C651.253 241.514 650.9 242.424 650.193 243.03C649.487 243.637 648.579 243.94 647.469 243.94C646.359 243.94 645.426 243.637 644.669 243.03C643.963 242.424 643.61 241.514 643.61 240.302V209.449C643.61 208.287 643.963 207.402 644.669 206.796C645.426 206.139 646.359 205.81 647.469 205.81C648.478 205.81 649.31 206.139 649.966 206.796C650.673 207.402 651.026 208.261 651.026 209.373V213.012C652.035 210.788 653.498 209.095 655.415 207.933C657.332 206.77 659.501 206.088 661.923 205.886L662.982 205.81Z" fill="white"/>
<path d="M686.625 244.092C682.992 244.092 679.789 243.308 677.014 241.742C674.29 240.175 672.171 237.952 670.657 235.071C669.194 232.14 668.463 228.754 668.463 224.913C668.463 221.022 669.194 217.636 670.657 214.755C672.171 211.824 674.29 209.575 677.014 208.009C679.789 206.442 682.992 205.659 686.625 205.659C690.257 205.659 693.435 206.442 696.16 208.009C698.934 209.575 701.053 211.824 702.516 214.755C704.03 217.636 704.787 221.022 704.787 224.913C704.787 228.754 704.03 232.14 702.516 235.071C701.053 237.952 698.934 240.175 696.16 241.742C693.435 243.308 690.257 244.092 686.625 244.092ZM686.625 238.027C690.005 238.027 692.578 236.916 694.343 234.692C696.16 232.468 697.068 229.209 697.068 224.913C697.068 220.668 696.16 217.434 694.343 215.21C692.527 212.936 689.954 211.799 686.625 211.799C683.295 211.799 680.722 212.936 678.906 215.21C677.089 217.434 676.181 220.668 676.181 224.913C676.181 229.209 677.064 232.468 678.83 234.692C680.646 236.916 683.244 238.027 686.625 238.027Z" fill="white"/>
<path d="M741.899 205.81C743.059 205.81 743.967 206.139 744.623 206.796C745.329 207.453 745.683 208.362 745.683 209.525V240.377C745.683 241.439 745.329 242.298 744.623 242.955C743.917 243.612 742.984 243.94 741.823 243.94C740.764 243.94 739.906 243.637 739.25 243.03C738.594 242.374 738.266 241.514 738.266 240.453V237.573C737.106 239.695 735.492 241.312 733.423 242.424C731.405 243.536 729.135 244.092 726.612 244.092C717.632 244.092 713.142 239.139 713.142 229.234V209.525C713.142 208.362 713.47 207.453 714.126 206.796C714.832 206.139 715.791 205.81 717.002 205.81C718.162 205.81 719.07 206.139 719.726 206.796C720.432 207.453 720.785 208.362 720.785 209.525V229.158C720.785 232.14 721.391 234.338 722.602 235.753C723.813 237.168 725.679 237.876 728.202 237.876C731.178 237.876 733.549 236.916 735.315 234.995C737.131 233.075 738.039 230.523 738.039 227.339V209.525C738.039 208.413 738.393 207.529 739.099 206.872C739.805 206.164 740.738 205.81 741.899 205.81Z" fill="white"/>
<path d="M776.205 205.659C779.383 205.659 782.208 206.467 784.68 208.084C787.203 209.702 789.145 211.976 790.507 214.907C791.92 217.838 792.626 221.224 792.626 225.065C792.626 228.855 791.945 232.19 790.583 235.071C789.221 237.952 787.279 240.175 784.756 241.742C782.284 243.308 779.434 244.092 776.205 244.092C773.43 244.092 770.983 243.511 768.864 242.348C766.745 241.135 765.131 239.417 764.021 237.194V254.098C764.021 255.159 763.668 255.993 762.962 256.6C762.306 257.257 761.423 257.585 760.313 257.585C759.153 257.585 758.194 257.257 757.437 256.6C756.731 255.943 756.378 255.058 756.378 253.946V209.525C756.378 208.413 756.731 207.529 757.437 206.872C758.144 206.164 759.077 205.81 760.237 205.81C761.347 205.81 762.255 206.164 762.962 206.872C763.668 207.529 764.021 208.413 764.021 209.525V212.633C765.131 210.409 766.745 208.691 768.864 207.478C770.983 206.265 773.43 205.659 776.205 205.659ZM774.389 238.027C777.718 238.027 780.291 236.916 782.107 234.692C783.924 232.418 784.832 229.209 784.832 225.065C784.832 220.87 783.898 217.611 782.032 215.286C780.216 212.961 777.668 211.799 774.389 211.799C771.059 211.799 768.486 212.936 766.67 215.21C764.904 217.484 764.021 220.719 764.021 224.913C764.021 229.108 764.904 232.342 766.67 234.616C768.486 236.89 771.059 238.027 774.389 238.027Z" fill="white"/>
</g>
<defs>
<clipPath id="clip0_501_4">
<rect width="1009" height="259" fill="white"/>
</clipPath>
</defs>
</svg>
