<svg width="227" height="75" viewBox="0 0 227 75" fill="none" xmlns="http://www.w3.org/2000/svg">
<path d="M29.425 34.4013V26.4766H55.825C56.0945 27.8747 56.254 29.5326 56.254 31.3342C56.254 37.275 54.637 44.6305 49.423 49.8695C44.352 55.1747 37.8785 58.0042 29.2875 58.0042C13.376 58.0042 0 44.9897 0 29.0021C0 13.0145 13.376 0 29.2875 0C38.0875 0 44.352 3.465 49.071 7.99105L43.5105 13.5782C40.1335 10.395 35.5575 7.91921 29.2875 7.91921C17.6715 7.91921 8.591 17.325 8.591 29.0021C8.591 40.6792 17.6715 50.085 29.2875 50.085C36.8225 50.085 41.1125 47.0455 43.8625 44.2824C46.101 42.0332 47.575 38.8113 48.147 34.4013H29.425Z" fill="white"/>
<path d="M96.4809 39.3258C96.4809 50.08 88.1044 57.9992 77.8249 57.9992C67.5454 57.9992 59.1689 50.0745 59.1689 39.3258C59.1689 28.5052 67.5454 20.6523 77.8249 20.6523C88.1044 20.6523 96.4809 28.5052 96.4809 39.3258V39.3258ZM88.3134 39.3258C88.3134 32.6058 83.4569 28.0079 77.8249 28.0079C72.1929 28.0079 67.3364 32.6058 67.3364 39.3258C67.3364 45.9739 72.1929 50.6437 77.8249 50.6437C83.4569 50.6492 88.3134 45.9795 88.3134 39.3258Z" fill="white"/>
<path d="M136.631 39.3258C136.631 50.08 128.255 57.9992 117.975 57.9992C107.696 57.9992 99.3191 50.0745 99.3191 39.3258C99.3191 28.5052 107.696 20.6523 117.975 20.6523C128.255 20.6523 136.631 28.5052 136.631 39.3258V39.3258ZM128.464 39.3258C128.464 32.6058 123.607 28.0079 117.975 28.0079C112.343 28.0079 107.487 32.6058 107.487 39.3258C107.487 45.9739 112.343 50.6437 117.975 50.6437C123.607 50.6492 128.464 45.9795 128.464 39.3258Z" fill="white"/>
<path d="M175.175 21.7739V55.3131C175.175 69.1067 167.079 74.7657 157.504 74.7657C148.495 74.7657 143.072 68.6812 141.031 63.7296L148.143 60.7565C149.408 63.796 152.51 67.4046 157.504 67.4046C163.631 67.4046 167.431 63.586 167.431 56.4404V53.7546H167.151C165.319 56.0204 161.799 57.9988 157.366 57.9988C148.071 57.9988 139.552 49.8641 139.552 39.3917C139.552 28.8531 148.071 20.6465 157.366 20.6465C161.799 20.6465 165.319 22.6249 167.151 24.8189H167.431V21.7683H175.175V21.7739ZM167.992 39.3973C167.992 32.8154 163.625 28.0075 158.065 28.0075C152.433 28.0075 147.714 32.8154 147.714 39.3973C147.714 45.9073 152.433 50.6433 158.065 50.6433C163.631 50.6489 167.992 45.9073 167.992 39.3973Z" fill="white"/>
<path d="M188.925 2.16064V56.8712H180.758V2.16064H188.925Z" fill="white"/>
<path d="M219.912 45.4814L226.248 49.7256C224.207 52.7651 219.279 58.0041 210.76 58.0041C200.2 58.0041 192.313 49.7975 192.313 39.3306C192.313 28.2228 200.266 20.6572 209.841 20.6572C219.488 20.6572 224.202 28.3664 225.753 32.5388L226.6 34.6609L201.745 44.9896C203.648 48.7364 206.602 50.6485 210.754 50.6485C214.912 50.6485 217.8 48.5928 219.912 45.4814V45.4814ZM200.409 38.7614L217.024 31.8314C216.111 29.4993 213.361 27.8691 210.127 27.8691C205.969 27.8691 200.2 31.5441 200.409 38.7614V38.7614Z" fill="white"/>
</svg>
