<svg width="1052" height="305" viewBox="0 0 1052 305" fill="none" xmlns="http://www.w3.org/2000/svg">
<g clip-path="url(#clip0_501_41)">
<mask id="mask0_501_41" style="mask-type:luminance" maskUnits="userSpaceOnUse" x="0" y="0" width="1052" height="305">
<path d="M0 0H1052V305H0V0Z" fill="white"/>
</mask>
<g mask="url(#mask0_501_41)">
<path d="M464.685 154.803H411.986L403.265 180.267H375.359L422.892 46.4222H453.779L501.312 180.267H473.388L464.685 154.803ZM438.335 77.4326L419.2 133.36H457.483L438.335 77.4388V77.4326ZM518.244 38.5669H544.78V180.267H518.244V38.5669ZM571.442 38.5669H597.978V180.267H571.442V38.5669ZM671.587 181.992C641.066 181.992 618.881 160.548 618.881 127.229C618.881 93.7159 640.494 72.453 671.587 72.453C701.914 72.453 723.322 93.3362 723.322 124.932C723.353 128.393 723.104 131.847 722.568 135.264H645.841C647.167 150.931 657.78 159.789 671.045 159.789C682.412 159.789 688.674 154.044 692.085 146.954H720.701C714.987 166.486 697.513 181.992 671.587 181.992ZM645.997 117.257H695.845C695.465 103.277 684.479 94.469 670.827 94.469C658.129 94.4753 648.088 102.716 645.997 117.269V117.257ZM785.664 72.453C802.197 72.453 814.092 80.1216 820.342 89.3089V74.1834H847.078V181.039C847.078 209.759 829.636 232.553 795.144 232.553C765.576 232.553 744.922 217.614 742.264 193.289H768.607C771.259 202.875 781.119 209.186 794.441 209.186C809.032 209.186 820.398 200.765 820.398 180.996V164.563C814.198 173.763 802.209 181.992 785.72 181.992C758.996 181.992 737.77 159.969 737.77 126.843C737.77 93.7159 758.94 72.453 785.664 72.453ZM792.486 96.0563C778.275 96.0563 764.81 106.775 764.81 126.886C764.81 146.991 778.243 158.475 792.486 158.475C807.089 158.475 820.386 147.377 820.386 127.272C820.386 107.167 807.046 96.0563 792.486 96.0563ZM900.562 180.261H874.025V74.1834H900.562V90.6534C907.198 79.7419 918.191 72.6522 932.782 72.6522V100.837H925.766C910.036 100.837 900.562 106.955 900.562 127.446V180.261ZM997.184 181.992C966.863 181.992 943.924 160.548 943.924 127.229C943.924 93.7159 967.616 72.453 997.943 72.453C1028.28 72.453 1051.96 93.7159 1051.96 127.229C1052 160.542 1027.74 181.992 997.184 181.992ZM997.184 158.637C1011.21 158.637 1024.67 148.286 1024.67 127.229C1024.67 105.972 1011.59 95.826 997.564 95.826C983.539 95.826 970.84 105.972 970.84 127.229C970.884 148.255 983.016 158.637 997.184 158.637Z" fill="white"/>
<path d="M385.729 269.041C378.185 269.041 373.223 264.684 373.006 258.864H376.996C377.319 261.995 379.641 265.829 385.729 265.829C390.958 265.829 393.996 262.692 393.996 258.808C393.996 247.598 373.329 254.638 373.329 240.352C373.329 234.477 378.122 230.169 385.399 230.169C392.67 230.169 396.865 234.203 397.519 239.425H393.386C392.962 236.761 390.429 233.493 385.2 233.437C380.78 233.387 377.12 235.833 377.12 240.247C377.12 251.239 397.787 244.486 397.787 258.646C397.837 263.813 393.703 269.041 385.729 269.041ZM429.702 269.041C419.132 269.041 411.095 261.036 411.095 249.615C411.095 238.193 419.175 230.175 429.695 230.175C440.215 230.175 448.295 238.23 448.295 249.615C448.295 260.993 440.315 269.041 429.702 269.041ZM429.702 265.723C438.043 265.723 444.461 259.574 444.461 249.615C444.461 239.655 438.049 233.543 429.695 233.543C421.348 233.543 414.942 239.643 414.942 249.615C414.942 259.586 421.354 265.723 429.702 265.723ZM463.652 230.617H484.02V233.742H467.424V247.953H481.436V251.083H467.43V268.618H463.652V230.617ZM496.575 230.617H521.3V233.742H510.843V268.637H507.076V233.767H496.575V230.617ZM533.644 230.617H537.684L546.299 264.024L555.948 230.611H560.143L569.53 264.018L578.202 230.611H582.242L571.578 268.655H567.37L557.884 236.219L548.192 268.655L544.058 268.717L533.644 230.617ZM615.14 259.623H598.009L594.722 268.655H590.738L604.477 231.072H608.735L622.417 268.655H618.433L615.14 259.623ZM606.575 235.896L599.136 256.461H614.007L606.575 235.896ZM647.528 230.617C656.249 230.617 660.351 235.404 660.351 241.66C660.351 246.876 657.438 251.295 651.051 252.49L660.743 268.655H656.218L646.918 252.764H639.977V268.655H636.205V230.617H647.528ZM647.528 233.817H639.983V249.664H647.578C653.715 249.664 656.467 246.284 656.467 241.66C656.467 236.867 653.883 233.867 647.528 233.867V233.817ZM695.671 233.711H679.779V247.921H694.046V251.052H679.779V265.506H695.671V268.637H676.038V230.555H695.671V233.711Z" fill="white"/>
<path d="M23.5425 193.538C19.2309 180.293 17.1074 166.434 17.2554 152.506C17.2652 116.769 31.3494 82.4723 56.4595 57.0412C68.813 44.5251 83.5239 34.5804 99.7426 27.7813C115.961 20.9822 133.366 17.4636 150.953 17.4286C185.308 17.4286 215.523 28.309 240.447 52.1737L252.237 39.3512C224.082 12.4179 189.734 0 150.94 0C67.7141 0 0.000114839 68.4196 0.000114839 152.5C-0.0197072 168.702 2.52667 184.805 7.54464 200.211C22.7333 198.592 23.5425 193.538 23.5425 193.538Z" fill="url(#paint0_linear_501_41)"/>
<path d="M172.565 182.782C177.153 173.844 169.963 172.25 171.943 168.727C179.587 155.158 195.579 140.537 195.579 140.537L295.724 38.8782C294.579 37.2847 293.583 35.5107 292.375 33.9546L191.396 134.978C188.14 134.978 164.131 128.355 155.03 127.801C155.466 122.685 166.397 122.853 167.909 115.67C169.272 109.134 161.087 107.067 154.607 106.993C149.521 106.931 126.813 106.389 107.827 117.325C99.4669 122.131 90.0238 133.192 83.1204 136.267C75.4203 139.69 69.7619 139.31 63.923 144.62C61.0014 147.379 58.8623 150.862 57.723 154.716C48.4231 184.768 54.4861 201.605 39.4344 218.081C35.1393 222.781 25.2853 223.584 17.5852 225.675C26.5461 241.626 38.4384 255.741 52.6373 267.28C68.1372 263.47 101.814 254.75 125.188 232.136C156.686 201.63 169.036 189.735 172.565 182.782ZM174.47 149.73L163.328 159.876L154.239 150.054L174.47 149.73ZM98.5207 187.419C87.3658 169.524 126.091 139.989 145.705 168.889C145.705 168.889 116.106 209.473 98.5518 187.419H98.5207Z" fill="url(#paint1_linear_501_41)"/>
<path d="M284.824 82.0637L271.659 93.9649C282.403 112.763 284.613 126.332 284.613 152.432C284.607 172.492 280.175 192.305 271.634 210.456C263.122 228.55 250.697 244.527 235.256 257.233C219.879 269.885 201.863 278.931 182.531 283.706C163.236 288.468 143.116 288.828 123.663 284.758C119.547 283.893 115.472 282.846 111.45 281.621C108.593 280.768 107.87 280.799 99.747 277.226C97.2197 278.932 92.5884 281.023 77.4185 284.858C79.0992 286.769 85.1684 290.086 85.1684 290.086C92.2336 293.286 99.4856 296.074 106.868 298.433C121.144 302.824 135.998 305.043 150.934 305.019C234.16 305.019 301.862 236.612 301.862 152.525C301.874 123.282 297.1 103.538 284.824 82.0637Z" fill="url(#paint2_linear_501_41)"/>
</g>
</g>
<defs>
<linearGradient id="paint0_linear_501_41" x1="18897.6" y1="37113.6" x2="73686.3" y2="37113.6" gradientUnits="userSpaceOnUse">
<stop stop-color="white"/>
<stop offset="0.26" stop-color="#00B5E2"/>
<stop offset="1" stop-color="#008BE2"/>
</linearGradient>
<linearGradient id="paint1_linear_501_41" x1="20855.7" y1="43286" x2="81270.5" y2="43286" gradientUnits="userSpaceOnUse">
<stop stop-color="white"/>
<stop offset="0.26" stop-color="#00B5E2"/>
<stop offset="1" stop-color="#008BE2"/>
</linearGradient>
<linearGradient id="paint2_linear_501_41" x1="16892.7" y1="41411.8" x2="65644.2" y2="41411.8" gradientUnits="userSpaceOnUse">
<stop stop-color="white"/>
<stop offset="0.26" stop-color="#00B5E2"/>
<stop offset="1" stop-color="#008BE2"/>
</linearGradient>
<clipPath id="clip0_501_41">
<rect width="1052" height="305" fill="white"/>
</clipPath>
</defs>
</svg>
