<svg width="56" height="56" viewBox="0 0 56 56" fill="none" xmlns="http://www.w3.org/2000/svg">
<path d="M28.0498 0.441895C12.5398 0.441895 0.549805 11.7994 0.549805 27.1169C0.549805 35.1194 3.8223 42.0769 9.1848 46.8344C9.6248 47.1919 9.8998 47.7969 9.9273 48.4019L10.0648 53.2969C10.1748 54.8644 11.7423 55.8819 13.1723 55.2494L18.6173 52.8569C19.0848 52.6919 19.6073 52.6094 20.0748 52.6919C22.5498 53.4344 25.2998 53.7919 28.0498 53.7919C43.5598 53.7919 55.5498 42.4344 55.5498 27.1169C55.5498 11.7994 43.5598 0.441895 28.0498 0.441895ZM44.5498 20.9569L36.4923 33.7994C35.1998 35.8069 32.4498 36.3294 30.5248 34.8169L24.0898 30.0594C23.8042 29.8452 23.4568 29.7294 23.0998 29.7294C22.7428 29.7294 22.3954 29.8452 22.1098 30.0594L13.4198 36.6594C12.2648 37.5669 10.7523 36.1919 11.5498 34.9269L19.6073 22.0844C20.8998 20.0769 23.6498 19.5544 25.5748 20.9844L32.0098 25.8244C32.2954 26.0386 32.6428 26.1544 32.9998 26.1544C33.3568 26.1544 33.7042 26.0386 33.9898 25.8244L42.6798 19.2244C43.8348 18.3169 45.3473 19.6919 44.5498 20.9569V20.9569Z" fill="white"/>
</svg>
