<svg width="171" height="62" viewBox="0 0 171 62" fill="none" xmlns="http://www.w3.org/2000/svg">
<path d="M14.7906 61.079V23.7183H0V12.9174H43.1355V23.7183H28.4119V61.079H14.7906Z" fill="#002859"/>
<path d="M58.2028 31.975L60.8181 36.2417V31.975H58.2028Z" fill="#002859"/>
<path d="M127.483 61.079H113.862V12.9174H151.632V23.4416H127.483V61.079ZM126.519 34.0371H148.732V44.5655H126.519V34.0371Z" fill="#002859"/>
<path d="M91.6232 41.8999L91.707 59.8216H104.23L104.13 24.2673L102.734 23.2782L91.6232 41.8999Z" fill="#002859"/>
<path d="M105.475 20.403L88.7522 8.55433L107.374 0L105.475 20.403Z" fill="#002859"/>
<path d="M58.2028 30.7176L60.8181 34.9843V30.7176H58.2028Z" fill="#002859"/>
<path d="M58.2028 30.7176L60.8181 34.9843V30.7176H58.2028Z" fill="#002859"/>
<path d="M104.096 13.0683L104.092 11.66H92.8763L76.3925 39.4857L69.9842 49.9345L73.1317 55.073H79.188L104.096 13.3156V13.0683Z" fill="#002859"/>
<path d="M58.2028 30.7176L60.8181 34.9843V30.7176H58.2028Z" fill="#002859"/>
<path d="M74.0789 35.6843L59.4434 11.66H48.2278V59.8216H60.8181V34.9843L58.2028 30.7176H60.8181V34.9843L67.679 46.1749L73.027 37.453L74.0789 35.6843Z" fill="#002859"/>
<path d="M165.057 15.0172C164.257 15.0252 163.465 14.8712 162.726 14.5646C161.307 13.9702 160.183 12.8364 159.6 11.4128C159.3 10.6787 159.149 9.89223 159.156 9.09919C159.15 8.32235 159.299 7.55212 159.592 6.83282C159.885 6.11353 160.318 5.45936 160.866 4.90795C161.404 4.36687 162.045 3.9393 162.752 3.65057C163.493 3.34473 164.288 3.1908 165.09 3.19792C165.891 3.19016 166.686 3.34116 167.429 3.64219C168.134 3.92893 168.773 4.35682 169.307 4.89956C169.842 5.4356 170.269 6.07039 170.564 6.76886C170.858 7.49858 171.006 8.27892 171 9.06566C171.007 9.86767 170.853 10.6629 170.547 11.4044C170.098 12.4845 169.336 13.4056 168.359 14.0493C167.382 14.6931 166.235 15.0302 165.065 15.0172H165.057ZM165.057 13.7599C165.681 13.7659 166.301 13.6432 166.876 13.3994C167.418 13.165 167.91 12.8293 168.326 12.4103C168.742 11.9841 169.069 11.4799 169.29 10.9266C169.742 9.7417 169.742 8.43153 169.29 7.24666C169.077 6.70058 168.758 6.20204 168.351 5.77972C167.944 5.36338 167.456 5.03523 166.918 4.81574C166.335 4.58025 165.711 4.46341 165.082 4.47206C164.455 4.46525 163.834 4.585 163.254 4.82412C162.705 5.04917 162.208 5.38601 161.796 5.81325C161.381 6.23554 161.056 6.73738 160.84 7.28857C160.611 7.8701 160.497 8.49082 160.505 9.11596C160.5 9.74087 160.613 10.3611 160.84 10.9433C161.051 11.4975 161.373 12.0025 161.787 12.4271C162.201 12.8518 162.698 13.187 163.246 13.412C163.821 13.6429 164.437 13.7555 165.057 13.7431V13.7599ZM162.408 12.3181V5.89708H165.308C166.072 5.85096 166.828 6.07334 167.446 6.52577C167.695 6.73127 167.894 6.99185 168.027 7.28707C168.159 7.58229 168.221 7.90414 168.208 8.22741C168.227 8.55623 168.167 8.8847 168.034 9.18617C167.902 9.48764 167.7 9.75364 167.446 9.96259C166.825 10.3912 166.078 10.6006 165.325 10.5577H164.487V12.3013L162.408 12.3181ZM164.47 9.09919H165.191C165.448 9.11353 165.702 9.033 165.903 8.87286C165.991 8.79395 166.059 8.69658 166.104 8.58783C166.149 8.47909 166.169 8.36169 166.163 8.24418C166.171 8.12525 166.151 8.00613 166.106 7.89578C166.061 7.78543 165.992 7.68673 165.903 7.60711C165.699 7.45168 165.447 7.37436 165.191 7.38916H164.47V9.09919ZM166.389 12.3013L164.814 9.87038H166.909L168.485 12.3013H166.389Z" fill="#002859"/>
</svg>
