<svg width="129" height="46" viewBox="0 0 129 46" fill="none" xmlns="http://www.w3.org/2000/svg">
<path d="M11.3755 45.9199V18.3944H0.3041V10.4368H32.5927V18.3944H21.5715V45.9199H11.3755Z" fill="white"/>
<path d="M43.8711 24.4775L45.8287 27.621V24.4775H43.8711Z" fill="white"/>
<path d="M95.7298 45.9199H85.5338V10.4368H113.807V18.1906H95.7298V45.9199ZM95.0083 25.9968H111.636V33.7536H95.0083V25.9968Z" fill="white"/>
<path d="M68.8875 31.7897L68.9503 44.9935H78.3244L78.2491 18.7989L77.2044 18.0701L68.8875 31.7897Z" fill="white"/>
<path d="M79.2561 15.9518L66.7385 7.22233L80.6773 0.919922L79.2561 15.9518Z" fill="white"/>
<path d="M43.8711 23.5512L45.8287 26.6946V23.5512H43.8711Z" fill="white"/>
<path d="M43.8711 23.5512L45.8287 26.6946V23.5512H43.8711Z" fill="white"/>
<path d="M78.224 10.548L78.2209 9.51046H69.8256L57.4868 30.011L52.6899 37.7092L55.046 41.495H59.5793L78.224 10.7302V10.548Z" fill="white"/>
<path d="M43.8711 23.5512L45.8287 26.6946V23.5512H43.8711Z" fill="white"/>
<path d="M55.755 27.2103L44.7997 9.51046H36.4044V44.9935H45.8287V26.6946L43.8711 23.5512H45.8287V26.6946L50.9644 34.9393L54.9676 28.5134L55.755 27.2103Z" fill="white"/>
<path d="M123.855 11.9839C123.257 11.9897 122.664 11.8763 122.111 11.6504C121.049 11.2124 120.207 10.3772 119.771 9.32828C119.546 8.78747 119.433 8.20803 119.438 7.62376C119.434 7.05142 119.545 6.48395 119.765 5.95401C119.984 5.42407 120.308 4.94211 120.718 4.53585C121.121 4.13722 121.601 3.82221 122.13 3.60948C122.685 3.38415 123.28 3.27075 123.88 3.27599C124.48 3.27028 125.075 3.38152 125.631 3.60331C126.159 3.81456 126.637 4.12981 127.036 4.52968C127.438 4.9246 127.757 5.39229 127.978 5.90688C128.198 6.4445 128.309 7.01942 128.304 7.59905C128.309 8.18993 128.194 8.77585 127.965 9.3221C127.629 10.1179 127.058 10.7965 126.327 11.2708C125.596 11.7451 124.737 11.9934 123.862 11.9839H123.855ZM123.855 11.0575C124.323 11.062 124.786 10.9716 125.217 10.7919C125.623 10.6192 125.991 10.3719 126.302 10.0632C126.614 9.74925 126.859 9.37774 127.024 8.97008C127.363 8.09713 127.363 7.13186 127.024 6.2589C126.864 5.85658 126.626 5.48928 126.321 5.17814C126.017 4.8714 125.652 4.62963 125.248 4.46792C124.812 4.29442 124.345 4.20834 123.874 4.21471C123.405 4.2097 122.94 4.29792 122.506 4.4741C122.095 4.6399 121.723 4.88807 121.415 5.20284C121.104 5.51396 120.861 5.88369 120.699 6.28978C120.527 6.71822 120.442 7.17554 120.448 7.63611C120.444 8.09651 120.529 8.55346 120.699 8.98243C120.857 9.39072 121.098 9.76279 121.408 10.0756C121.718 10.3885 122.089 10.6354 122.5 10.8012C122.931 10.9714 123.391 11.0543 123.855 11.0452V11.0575ZM121.873 9.99526V5.2646H124.044C124.615 5.23062 125.181 5.39446 125.644 5.72778C125.831 5.87919 125.979 6.07117 126.079 6.28867C126.178 6.50618 126.224 6.7433 126.215 6.98147C126.228 7.22373 126.183 7.46573 126.084 7.68784C125.985 7.90995 125.834 8.10592 125.644 8.25986C125.179 8.57562 124.62 8.72991 124.056 8.69835H123.429V9.98291L121.873 9.99526ZM123.416 7.62376H123.956C124.148 7.63432 124.338 7.57499 124.489 7.45701C124.554 7.39887 124.606 7.32713 124.639 7.24701C124.673 7.16689 124.688 7.0804 124.684 6.99382C124.689 6.9062 124.675 6.81844 124.641 6.73714C124.607 6.65584 124.555 6.58313 124.489 6.52446C124.336 6.40995 124.147 6.35299 123.956 6.36389H123.416V7.62376ZM124.853 9.98291L123.673 8.19193H125.242L126.422 9.98291H124.853Z" fill="white"/>
</svg>
